<svg xmlns="http://www.w3.org/2000/svg" id="flag-icons-iq-kr" viewBox="0 0 512 512">
  <rect width="512" height="170.7" fill="#d21034"/>
  <rect y="170.7" width="512" height="170.7" fill="#fff"/>
  <rect y="341.3" width="512" height="170.7" fill="#007a3d"/>
  <circle cx="256" cy="256" r="40" fill="#f4c430"/>
  <path fill="#f4c430" d="M252.86,216.12 L256.00,179.00 L259.14,216.12Z M264.75,216.97 L278.70,182.42 L270.75,218.82Z M275.87,221.28 L299.38,192.38 L281.06,224.82Z M285.22,228.68 L316.20,207.99 L289.13,233.59Z M291.97,238.51 L327.68,227.87 L294.27,244.35Z M295.53,249.89 L332.78,250.25 L296.00,256.15Z M295.58,261.81 L331.07,273.13 L294.18,267.93Z M292.10,273.22 L322.68,294.50 L288.97,278.66Z M285.42,283.10 L308.37,312.44 L280.82,287.37Z M276.13,290.57 L289.41,325.37 L270.47,293.29Z M265.05,294.96 L267.48,332.14 L258.84,295.90Z M253.16,295.90 L244.52,332.14 L246.95,294.96Z M241.53,293.29 L222.59,325.37 L235.87,290.57Z M231.18,287.37 L203.63,312.44 L226.58,283.10Z M223.03,278.66 L189.32,294.50 L219.90,273.22Z M217.82,267.93 L180.93,273.13 L216.42,261.81Z M216.00,256.15 L179.22,250.25 L216.47,249.89Z M217.73,244.35 L184.32,227.87 L220.03,238.51Z M222.87,233.59 L195.80,207.99 L226.78,228.68Z M230.94,224.82 L212.62,192.38 L236.13,221.28Z M241.25,218.82 L233.30,182.42 L247.25,216.97Z"/>
</svg>
