<svg xmlns="http://www.w3.org/2000/svg" id="flag-icons-iq-kr" viewBox="0 0 640 480">
  <rect width="640" height="160" fill="#d21034"/>
  <rect y="160" width="640" height="160" fill="#fff"/>
  <rect y="320" width="640" height="160" fill="#007a3d"/>
  <circle cx="320" cy="240" r="47" fill="#f4c430"/>
  <path fill="#f4c430" d="M316.31,193.14 L320.00,150.00 L323.69,193.14Z M330.29,194.14 L346.53,154.00 L337.33,196.31Z M343.35,199.21 L370.70,165.64 L349.44,203.36Z M354.33,207.90 L390.36,183.89 L358.93,213.67Z M362.27,219.45 L403.78,207.12 L364.96,226.31Z M366.45,232.82 L409.75,233.27 L367.00,240.18Z M366.50,246.83 L407.74,260.03 L364.86,254.02Z M362.42,260.23 L397.94,285.00 L358.73,266.62Z M354.57,271.84 L381.22,305.97 L349.17,276.86Z M343.65,280.62 L359.05,321.09 L337.01,283.81Z M330.63,285.78 L333.41,328.99 L323.34,286.88Z M316.66,286.88 L306.59,328.99 L309.37,285.78Z M302.99,283.81 L280.95,321.09 L296.35,280.62Z M290.83,276.86 L258.78,305.97 L285.43,271.84Z M281.27,266.62 L242.06,285.00 L277.58,260.23Z M275.14,254.02 L232.26,260.03 L273.50,246.83Z M273.00,240.18 L230.25,233.27 L273.55,232.82Z M275.04,226.31 L236.22,207.12 L277.73,219.45Z M281.07,213.67 L249.64,183.89 L285.67,207.90Z M290.56,203.36 L269.30,165.64 L296.65,199.21Z M302.67,196.31 L293.47,154.00 L309.71,194.14Z"/>
</svg>
